<svg xmlns="http://www.w3.org/2000/svg" version="1.1" xmlns:xlink="http://www.w3.org/1999/xlink" xmlns:svgjs="http://svgjs.dev/svgjs" width="1500" height="1500" viewBox="0 0 1500 1500"><rect width="1500" height="1500" fill="#000000"></rect><g transform="matrix(0.6666666666666666,0,0,0.6666666666666666,249.46339543859887,612.4633872188252)"><svg viewBox="0 0 396 109" data-background-color="#0080ff" preserveAspectRatio="xMidYMid meet" height="412" width="1500" xmlns="http://www.w3.org/2000/svg" xmlns:xlink="http://www.w3.org/1999/xlink"><g id="tight-bounds" transform="matrix(1,0,0,1,0.36314137468730223,0.08067036340310096)"><svg viewBox="0 0 395.52 108.83865927319383" height="108.83865927319383" width="395.52"><g><svg viewBox="0 0 565.0450002303254 155.48831981717768" height="108.83865927319383" width="395.52"><g transform="matrix(1,0,0,1,169.52500023032545,48.0481477204342)"><svg viewBox="0 0 395.52 59.39202437630927" height="59.39202437630927" width="395.52"><g id="textblocktransform"><svg viewBox="0 0 395.52 59.39202437630927" height="59.39202437630927" width="395.52" id="textblock"><g><svg viewBox="0 0 395.52 59.39202437630927" height="59.39202437630927" width="395.52"><g transform="matrix(1,0,0,1,0,0)"><svg width="395.52" viewBox="4.13 -38.01 256.37 38.5" height="59.39202437630927" data-palette-color="#ffffff"><path d="M4.13-35.55L15.89-35.55Q19.9-35.55 22.68-34.33 25.46-33.11 26.92-30.73 28.37-28.34 28.37-24.88L28.37-24.88Q28.37-22.44 27.38-20.43 26.39-18.43 24.54-17.02 22.68-15.6 20.12-14.92L20.12-14.92 18.8-14.4 7.76-14.4 7.71-18.21 16.02-18.21Q18.55-18.21 20.24-19.12 21.92-20.02 22.77-21.53 23.61-23.05 23.61-24.88L23.61-24.88Q23.61-27.98 21.78-29.85 19.95-31.71 15.89-31.71L15.89-31.71 8.86-31.71 8.86 0 4.13 0 4.13-35.55ZM24.85 0L16.24-16.11 21.19-16.11 29.93-0.29 29.93 0 24.85 0ZM45.19 0.49L45.19 0.49Q41.5 0.49 38.78-1.16 36.06-2.81 34.56-5.69 33.05-8.57 33.05-12.28L33.05-12.28 33.05-13.33Q33.05-17.63 34.7-20.67 36.35-23.71 39-25.31 41.65-26.9 44.6-26.9L44.6-26.9Q48.41-26.9 50.82-25.21 53.22-23.51 54.36-20.59 55.49-17.68 55.49-13.99L55.49-13.99 55.49-11.96 35.76-11.96 35.76-15.63 50.93-15.63 50.93-15.97Q50.83-17.72 50.22-19.4 49.61-21.07 48.26-22.16 46.92-23.24 44.6-23.24L44.6-23.24Q42.55-23.24 40.98-22.08 39.4-20.92 38.51-18.71 37.62-16.5 37.62-13.33L37.62-13.33 37.62-12.28Q37.62-9.77 38.55-7.7 39.48-5.64 41.23-4.41 42.99-3.17 45.43-3.17L45.43-3.17Q47.82-3.17 49.48-4.15 51.14-5.13 52.39-6.76L52.39-6.76 55.15-4.61Q53.88-2.66 51.5-1.09 49.12 0.49 45.19 0.49ZM65.69-37.5L65.69 0 61.13 0 61.13-37.5 65.69-37.5ZM77.85-26.42L77.85 0 73.28 0 73.28-26.42 77.85-26.42ZM72.94-33.45L72.94-33.45Q72.94-34.52 73.61-35.28 74.28-36.04 75.6-36.04L75.6-36.04Q76.92-36.04 77.62-35.28 78.31-34.52 78.31-33.45L78.31-33.45Q78.31-32.4 77.62-31.65 76.92-30.91 75.6-30.91L75.6-30.91Q74.28-30.91 73.61-31.65 72.94-32.4 72.94-33.45ZM96.03 0.49L96.03 0.49Q92.35 0.49 89.63-1.16 86.9-2.81 85.4-5.69 83.9-8.57 83.9-12.28L83.9-12.28 83.9-13.33Q83.9-17.63 85.55-20.67 87.2-23.71 89.85-25.31 92.49-26.9 95.45-26.9L95.45-26.9Q99.26-26.9 101.66-25.21 104.07-23.51 105.2-20.59 106.34-17.68 106.34-13.99L106.34-13.99 106.34-11.96 86.61-11.96 86.61-15.63 101.77-15.63 101.77-15.97Q101.67-17.72 101.06-19.4 100.45-21.07 99.11-22.16 97.77-23.24 95.45-23.24L95.45-23.24Q93.4-23.24 91.82-22.08 90.25-20.92 89.36-18.71 88.47-16.5 88.47-13.33L88.47-13.33 88.47-12.28Q88.47-9.77 89.39-7.7 90.32-5.64 92.08-4.41 93.84-3.17 96.28-3.17L96.28-3.17Q98.67-3.17 100.33-4.15 101.99-5.13 103.24-6.76L103.24-6.76 106-4.61Q104.73-2.66 102.35-1.09 99.97 0.49 96.03 0.49ZM118.37 0L113.81 0 113.81-29.22Q113.81-33.47 116.14-35.74 118.47-38.01 122.52-38.01L122.52-38.01Q123.3-38.01 124.08-37.92 124.87-37.82 125.62-37.62L125.62-37.62 125.38-33.98Q124.87-34.08 124.22-34.13 123.57-34.18 122.94-34.18L122.94-34.18Q120.79-34.18 119.58-32.9 118.37-31.62 118.37-29.22L118.37-29.22 118.37 0ZM123.99-26.42L123.99-22.97 109.66-22.97 109.66-26.42 123.99-26.42ZM129.67-35.55L141.44-35.55Q145.44-35.55 148.23-34.33 151.01-33.11 152.46-30.73 153.92-28.34 153.92-24.88L153.92-24.88Q153.92-22.44 152.93-20.43 151.94-18.43 150.08-17.02 148.23-15.6 145.66-14.92L145.66-14.92 144.35-14.4 133.31-14.4 133.26-18.21 141.56-18.21Q144.1-18.21 145.79-19.12 147.47-20.02 148.31-21.53 149.15-23.05 149.15-24.88L149.15-24.88Q149.15-27.98 147.32-29.85 145.49-31.71 141.44-31.71L141.44-31.71 134.41-31.71 134.41 0 129.67 0 129.67-35.55ZM150.4 0L141.78-16.11 146.74-16.11 155.48-0.29 155.48 0 150.4 0ZM170.73 0.49L170.73 0.49Q167.05 0.49 164.33-1.16 161.6-2.81 160.1-5.69 158.6-8.57 158.6-12.28L158.6-12.28 158.6-13.33Q158.6-17.63 160.25-20.67 161.9-23.71 164.55-25.31 167.19-26.9 170.15-26.9L170.15-26.9Q173.96-26.9 176.36-25.21 178.77-23.51 179.9-20.59 181.04-17.68 181.04-13.99L181.04-13.99 181.04-11.96 161.31-11.96 161.31-15.63 176.47-15.63 176.47-15.97Q176.37-17.72 175.76-19.4 175.15-21.07 173.81-22.16 172.47-23.24 170.15-23.24L170.15-23.24Q168.1-23.24 166.52-22.08 164.95-20.92 164.06-18.71 163.17-16.5 163.17-13.33L163.17-13.33 163.17-12.28Q163.17-9.77 164.09-7.7 165.02-5.64 166.78-4.41 168.54-3.17 170.98-3.17L170.98-3.17Q173.37-3.17 175.03-4.15 176.69-5.13 177.94-6.76L177.94-6.76 180.7-4.61Q179.43-2.66 177.05-1.09 174.67 0.49 170.73 0.49ZM201.86-4.52L201.86-18.12Q201.86-20.48 200.46-21.89 199.05-23.29 196.32-23.29L196.32-23.29Q194.63-23.29 193.35-22.71 192.07-22.12 191.36-21.17 190.65-20.21 190.65-19.09L190.65-19.09 186.09-19.09Q186.09-21 187.38-22.79 188.68-24.58 191.03-25.74 193.39-26.9 196.59-26.9L196.59-26.9Q199.47-26.9 201.69-25.93 203.91-24.95 205.17-22.99 206.43-21.02 206.43-18.07L206.43-18.07 206.43-5.76Q206.43-4.44 206.66-2.95 206.89-1.46 207.35-0.39L207.35-0.39 207.35 0 202.59 0Q202.25-0.78 202.06-2.09 201.86-3.39 201.86-4.52L201.86-4.52ZM202.64-16.02L202.69-12.84 198.15-12.84Q194.29-12.84 192.19-11.62 190.09-10.4 190.09-7.96L190.09-7.96Q190.09-6.05 191.37-4.74 192.66-3.42 195.12-3.42L195.12-3.42Q197.2-3.42 198.78-4.3 200.37-5.18 201.3-6.47 202.23-7.76 202.3-8.96L202.3-8.96 204.25-6.79Q204.08-5.76 203.32-4.52 202.57-3.27 201.31-2.14 200.05-1 198.33-0.26 196.61 0.49 194.46 0.49L194.46 0.49Q191.78 0.49 189.76-0.55 187.75-1.59 186.64-3.37 185.53-5.15 185.53-7.32L185.53-7.32Q185.53-11.6 188.75-13.81 191.97-16.02 197.42-16.02L197.42-16.02 202.64-16.02ZM224.1-3.17L224.1-3.17Q225.71-3.17 227.08-3.85 228.44-4.52 229.32-5.69 230.2-6.86 230.32-8.35L230.32-8.35 234.65-8.35Q234.52-6.01 233.06-3.99 231.59-1.98 229.25-0.74 226.91 0.49 224.1 0.49L224.1 0.49Q220.12 0.49 217.51-1.33 214.89-3.15 213.61-6.15 212.33-9.16 212.33-12.7L212.33-12.7 212.33-13.72Q212.33-17.29 213.62-20.28 214.92-23.27 217.53-25.09 220.14-26.9 224.1-26.9L224.1-26.9Q227.2-26.9 229.53-25.65 231.86-24.39 233.19-22.23 234.52-20.07 234.65-17.33L234.65-17.33 230.32-17.33Q230.2-18.97 229.41-20.31 228.62-21.66 227.26-22.45 225.91-23.24 224.1-23.24L224.1-23.24Q221.34-23.24 219.77-21.83 218.19-20.41 217.54-18.23 216.9-16.04 216.9-13.72L216.9-13.72 216.9-12.7Q216.9-10.38 217.53-8.18 218.17-5.98 219.74-4.58 221.32-3.17 224.1-3.17ZM244.26-37.5L244.26 0 239.7 0 239.7-37.5 244.26-37.5ZM243.19-14.23L241.28-14.31Q241.33-17.92 242.68-20.76 244.02-23.61 246.42-25.26 248.83-26.9 252.03-26.9L252.03-26.9Q254.64-26.9 256.53-25.94 258.42-24.98 259.46-22.88 260.5-20.78 260.5-17.31L260.5-17.31 260.5 0 255.93 0 255.93-17.36Q255.93-19.43 255.33-20.7 254.74-21.97 253.56-22.55 252.39-23.12 250.68-23.12L250.68-23.12Q249-23.12 247.63-22.41 246.26-21.7 245.26-20.46 244.26-19.21 243.73-17.61 243.19-16.02 243.19-14.23L243.19-14.23Z" opacity="1" transform="matrix(1,0,0,1,0,0)" fill="#ffffff" class="wordmark-text-0" data-fill-palette-color="primary" id="text-0"></path></svg></g></svg></g></svg></g></svg></g><g><svg viewBox="0 0 155.50396868366386 155.48831981717768" height="155.48831981717768" width="155.50396868366386"><g><svg xmlns="http://www.w3.org/2000/svg" data-name="Layer 1" viewBox="2 2.0060379937381523 60 59.993962006261846" x="0" y="0" height="155.48831981717768" width="155.50396868366386" class="icon-icon-0" data-fill-palette-color="accent" id="icon-0"><path d="M56.626 32.769a5.98 5.98 0 0 0-4.5-10.7 20.972 20.972 0 0 0-7.74-11.011 13 13 0 0 0-24.772 0 20.972 20.972 0 0 0-7.74 11.011 5.989 5.989 0 0 0-4.5 10.7A9.008 9.008 0 0 0 2 41a1 1 0 0 0 1 1H16.372a20.8 20.8 0 0 0 9.634 6.113 5.983 5.983 0 0 0 2.368 4.656A9.008 9.008 0 0 0 23 61a1 1 0 0 0 1 1H40a1 1 0 0 0 1-1 9.008 9.008 0 0 0-5.374-8.231 5.983 5.983 0 0 0 2.368-4.656A20.8 20.8 0 0 0 47.628 42H61a1 1 0 0 0 1-1A9.008 9.008 0 0 0 56.626 32.769ZM57 28a4 4 0 1 1-4-4A4 4 0 0 1 57 28ZM28.012 16c0.024 1.07 0.091 2.247 0.206 3.435a7.728 7.728 0 0 0-4.594 2.678A10.94 10.94 0 0 1 21.051 16ZM32 4.031c0.475 0.355 1.146 2.055 1.577 4.883A14.783 14.783 0 0 1 32 9a14.783 14.783 0 0 1-1.577-0.086C30.854 6.086 31.525 4.386 32 4.031Zm-3.532 4.52c-1.783-0.483-3.025-1.292-3.366-2.107a10.95 10.95 0 0 1 4.475-2.166A18.158 18.158 0 0 0 28.468 8.551Zm5.955-4.273A10.95 10.95 0 0 1 38.9 6.444c-0.341 0.815-1.583 1.624-3.366 2.107A18.158 18.158 0 0 0 34.423 4.278ZM32 11a17.5 17.5 0 0 0 1.817-0.094c0.088 0.945 0.148 1.976 0.171 3.094H30.012c0.023-1.118 0.083-2.149 0.171-3.094A17.5 17.5 0 0 0 32 11Zm1.988 5c-0.023 1.118-0.083 2.149-0.171 3.094a17.608 17.608 0 0 0-3.634 0c-0.088-0.945-0.148-1.976-0.171-3.094ZM32 25.969c-0.475-0.355-1.146-2.055-1.577-4.883a14.5 14.5 0 0 1 3.154 0C33.146 23.914 32.475 25.614 32 25.969Zm-3.532-4.52a18.158 18.158 0 0 0 1.109 4.273A10.95 10.95 0 0 1 25.1 23.556C25.443 22.741 26.685 21.932 28.468 21.449Zm7.064 0c1.783 0.483 3.025 1.292 3.366 2.107a10.95 10.95 0 0 1-4.475 2.166A18.158 18.158 0 0 0 35.532 21.449Zm4.844 0.663a7.733 7.733 0 0 0-4.594-2.677c0.115-1.188 0.182-2.365 0.206-3.435h6.961A10.934 10.934 0 0 1 40.376 22.112ZM42.949 14H35.988c-0.024-1.07-0.091-2.247-0.206-3.435a7.733 7.733 0 0 0 4.594-2.677A10.934 10.934 0 0 1 42.949 14ZM23.624 7.887a7.728 7.728 0 0 0 4.594 2.678c-0.115 1.188-0.182 2.365-0.206 3.435H21.051A10.94 10.94 0 0 1 23.624 7.887ZM7 28a4 4 0 1 1 4 4A4 4 0 0 1 7 28Zm4 6a7.011 7.011 0 0 1 6.929 6H4.071A7.011 7.011 0 0 1 11 34ZM38.929 60H25.071a7 7 0 0 1 13.858 0ZM32 52a4 4 0 1 1 4-4A4 4 0 0 1 32 52Zm0-10a6.006 6.006 0 0 0-5.693 4.119 18.778 18.778 0 0 1-7.161-4.148A0.988 0.988 0 0 0 20 41a9.008 9.008 0 0 0-5.374-8.231 5.985 5.985 0 0 0-0.85-10.083 18.945 18.945 0 0 1 5.268-8.556c-0.019 0.289-0.044 0.576-0.044 0.87a13 13 0 0 0 26 0c0-0.294-0.025-0.581-0.044-0.87a18.945 18.945 0 0 1 5.268 8.556 5.985 5.985 0 0 0-0.85 10.083A9.008 9.008 0 0 0 44 41a0.988 0.988 0 0 0 0.854 0.971 18.778 18.778 0 0 1-7.161 4.148A6.006 6.006 0 0 0 32 42Zm14.071-2a7 7 0 0 1 13.858 0Z" fill="#ffffff" data-fill-palette-color="accent"></path><path d="M38 36a1 1 0 0 0 0.555-1.832l-6-4a1 1 0 0 0-1.11 0l-6 4A1 1 0 0 0 26 36h2v3a1 1 0 0 0 1 1h6a1 1 0 0 0 1-1V36Zm-6-3.8L34.7 34H29.3ZM34 38H30V36h4Z" fill="#ffffff" data-fill-palette-color="accent"></path></svg></g></svg></g></svg></g><defs></defs></svg><rect width="395.52" height="108.83865927319383" fill="none" stroke="none" visibility="hidden"></rect></g></svg></g></svg>